<svg width="100" height="75" xmlns="http://www.w3.org/2000/svg">
 <g>
  <title>background</title>
  <rect x="-1" y="-1" width="102" height="77" id="canvas_background" fill="none"/>
 </g>

 <g>
  <title>Layer 1</title>
  <path d="m85.652001,48.48l0,-10.271l-3.09,0l0,-0.877l0.955,0l-5.324,-4.466l0,-17.993c-5.826,-1.755 -13.445,-1.453 -19.324,-0.727l0.031,-0.101l0,-1.999l-28.284,-11.977l-13.804,4.326l0,25.485l-9.814,1.13l0,5.737l27.22,-1.583l0,2.638l-27.22,1.584l0,8.209l27.22,0.021l0,2.633l-27.22,-0.021l0,8.524l76.69,7.097l0,2.645l-76.69,-7.098l0,6.215l76.69,7.32l9.314,-2.83l0,-23.621l-7.35,0zm-60.189,-24.604l-2.16,0.481l0,-2.665l2.16,-0.476l0,2.66zm0,-4.989l-2.16,0.479l0,-2.662l2.16,-0.481l0,2.664zm26.447,9.96l-2.829,0l0,-2.437l2.829,0l0,2.437zm0,-4.52l-2.829,0l0,-2.437l2.829,0l0,2.437zm0,-4.516l-2.829,0l0,-2.441l2.829,0l0,2.441zm10.899,15.232l-3.656,0l0,-2.832l3.656,0l0,2.832zm0,-4.962l-3.656,0l0,-2.829l3.656,0l0,2.829zm0,-4.962l-3.656,0l0,-2.829l3.656,0l0,2.829zm0,-4.962l-3.656,0l0,-2.829l3.656,0l0,2.829zm6.351,14.886l-3.65599,0l0,-2.832l3.65599,0l0,2.832zm0,-5.244l-3.65599,0l0,-2.826l3.65599,0l0,2.826zm0,-5.238l-3.65599,0l0,-2.829l3.65599,0l0,2.829zm0,-5.242l-3.65599,0l0,-2.829l3.65599,0l0,2.829zm6.35,15.724l-3.656,0l0,-2.832l3.656,0l0,2.832zm0,-4.962l-3.656,0l0,-2.829l3.656,0l0,2.829zm0,-4.962l-3.656,0l0,-2.829l3.656,0l0,2.829zm0,-4.962l-3.656,0l0,-2.829l3.656,0l0,2.829z" id="svg_1" fill="#f05f40"/>
  <text x="0" y="115" fill="#000000" font-size="5px" font-weight="bold" font-family="'Helvetica Neue', Helvetica, Arial-Unicode, Arial, Sans-serif" id="svg_2">Created by Melissa Schmitt</text>
  <text x="0" y="120" fill="#000000" font-size="5px" font-weight="bold" font-family="'Helvetica Neue', Helvetica, Arial-Unicode, Arial, Sans-serif" id="svg_3">from the Noun Project</text>
 </g>
</svg>