<svg width="99" height="98" xmlns="http://www.w3.org/2000/svg">

 <g>
  <title>background</title>
  <rect fill="#ffffff" id="canvas_background" height="100" width="101" y="-1" x="-1"/>
 </g>
 <g>
  <title>Layer 1</title>
  <g id="svg_1">
   <path id="svg_2" d="m74.130569,75.850006c3.600006,-1.800003 6.5,-3.700012 8.900009,-5.700012l0,-5.799988c-2.600006,2.199997 -5.5,4.399994 -8.900009,6.299988l0,5.200012z" fill="#f05f40"/>
   <path id="svg_3" d="m18.730574,77.850006c2.5,1.299988 5.400002,2.399994 8.900002,3.299988l0,-4.5c-3.5,-0.899994 -6.400002,-2.099991 -8.900002,-3.399994l0,4.600006z" fill="#f05f40"/>
   <path id="svg_4" d="m60.730579,80.550003c3.699993,-0.900009 6.89999,-1.900009 9.799999,-3.100006l0,-4.899994c-3,1.399994 -6.199997,2.699997 -9.799999,3.699997l0,4.300003z" fill="#f05f40"/>
   <path id="svg_5" d="m7.830574,65.149994c0.700001,3.900009 2.900001,7.5 6.200001,9.800003c0.5,0.400009 1.1,0.699997 1.6,1.100006l0,-4.600006c-0.400002,-0.300003 -0.800001,-0.5 -1.200001,-0.800003c-2.799999,-1.799988 -5,-3.799988 -6.6,-5.5z" fill="#f05f40"/>
   <path id="svg_6" d="m46.030575,78.449997l0,4.199997c2.400002,-0.099991 4.900002,-0.399994 7.599998,-0.799988c1,-0.100006 1.900002,-0.300003 2.800003,-0.5l0,-4.200012c-1.400002,0.300003 -2.900002,0.5 -4.5,0.700012c-1.900002,0.399994 -3.900002,0.5 -5.900002,0.599991z" fill="#f05f40"/>
   <path id="svg_7" d="m86.030579,61.649994l0,5.800003c0.099991,-0.099991 0.199997,-0.199997 0.300003,-0.300003c3.299988,-3.5 5.5,-8 6.099991,-12.799995c-0.800003,1 -1.599991,2.099998 -2.5,3.099998c-1.099991,1.300003 -2.399994,2.800003 -3.899994,4.199997z" fill="#f05f40"/>
   <path id="svg_8" d="m31.230574,81.850006c3.200003,0.599991 6.700003,0.899994 10.600004,0.899994l0,-4.300003c-3.900002,-0.099991 -7.5,-0.5 -10.600004,-1.099991l0,4.5z" fill="#f05f40"/>
   <path id="svg_9" d="m61.330578,25.049999c0.199997,0 0.400002,0 0.599998,0c0.099998,-4.299999 0.300003,-7.6 0.300003,-9.799999c-0.100006,0 -0.200005,0 -0.300003,0c-3.800003,0 -7.800003,0.299999 -12,1c1.199997,2 2.699997,5 3.599998,9.199997c2.800003,-0.199997 5.400002,-0.399998 7.800003,-0.399998z" fill="#f05f40"/>
   <path id="svg_10" d="m42.330578,27.650002c1.099998,-0.300003 2.199997,-0.600002 3.399994,-0.800003c2.300003,-0.5 4.600006,-0.900002 6.900002,-1.199997c-0.900002,-4.300003 -2.5,-7.300003 -3.699997,-9.100002c-1.599998,0.299999 -3.099998,0.6 -4.700005,1c-2.799995,0.700001 -5.399994,1.5 -8,2.4c2.200005,1.6 4.700005,4.200003 6.100006,7.700003z" fill="#f05f40"/>
   <path id="svg_11" d="m77.630569,28.849998c4.5,-3.400002 9.300003,-4.400002 11.900009,-4.699997c-3,-3.100002 -7.400009,-5.400002 -12.600006,-6.900002c-1.199997,2 -2.699997,5.099998 -4.099991,9.299999c1.799988,0.600002 3.5,1.299999 4.799988,2.299999z" fill="#f05f40"/>
   <path id="svg_12" d="m81.230576,36.049999c-0.100006,1.900002 -1,3.900002 -2.300003,5.799999c5.600006,2.5 8.900009,6.600002 10.199997,8.400002c3,-4 4.700012,-8.299999 5.100006,-12.400002c-1.600006,-0.700001 -6.699997,-2.700001 -13,-1.799999z" fill="#f05f40"/>
   <path id="svg_13" d="m75.830582,16.949999c-3.800003,-1 -7.900009,-1.5 -12.400005,-1.6c-0.099998,2.1 -0.199997,5.5 -0.300003,9.800003c3.200008,0.099998 6.200008,0.5 8.700008,1.099998c1.199997,-4.200001 2.699997,-7.200001 4,-9.300001z" fill="#f05f40"/>
   <path id="svg_14" d="m93.930573,31.849998c-0.599991,-2.5 -1.800003,-4.699997 -3.5,-6.699997c-2.199997,0.199997 -7.199997,0.899998 -11.899994,4.399998c1.199997,1.099998 2.099991,2.299999 2.5,3.799999c0.199997,0.5 0.199997,1.100002 0.300003,1.700001c6.099991,-0.900002 11.099991,0.799999 13.099991,1.700001c0.100006,-1.700001 -0.099991,-3.299999 -0.5,-4.900002z" fill="#f05f40"/>
   <path id="svg_15" d="m78.230576,60.449997c-0.5,-1.699997 -2.5,-6.999996 -7.600006,-11.199997c-2.599991,1.599998 -5.5,3.099998 -8.699993,4.399998c2.499996,5.100002 3.600002,10.499996 3.900005,12.900005c4.699997,-1.600006 8.799988,-3.699997 12.399994,-6.100006z" fill="#f05f40"/>
   <path id="svg_16" d="m78.330582,42.75c-1.700012,2.099998 -3.900009,4.099998 -6.700012,5.899998c4.900009,4.100002 7,9.100002 7.600006,11.100002c3.699997,-2.600006 6.899994,-5.5 9.300003,-8.600002c-1.100006,-1.5 -4.400009,-5.899998 -10.199997,-8.399998z" fill="#f05f40"/>
   <path id="svg_17" d="m47.930576,57.449997c-1.900002,0.199997 -3.800003,0.300003 -5.700005,0.300003c-1.799995,0 -3.599998,-0.100006 -5.299995,-0.300003c-3.800003,3.800003 -4.400002,9.5 -4.400002,12.5c3.199997,0.5 6.599998,0.800003 10.099998,0.800003c2.200005,0 4.400002,-0.100006 6.599998,-0.300003c-0.599998,-2.699997 -1.5,-7.899994 -1.299995,-13z" fill="#f05f40"/>
   <path id="svg_18" d="m15.130575,64.25c0.699999,-1.899994 3.4,-7.5 9.5,-10.100002c-2.900002,-1.5 -5,-3.5 -5.6,-5.899998c-6.800001,0 -11.3,5 -12.900001,7.199997c1.7,3.400002 4.900001,6.400002 9.000001,8.800003z" fill="#f05f40"/>
   <path id="svg_19" d="m35.530575,57.349998c-3.5,-0.5 -6.800001,-1.299995 -9.5,-2.5c-6.5,2.200005 -9.300001,8.299995 -9.9,9.900002c4.299999,2.300003 9.5,4.100006 15.299999,5c0,-3 0.5,-8.400002 4.1,-12.400002z" fill="#f05f40"/>
   <path id="svg_20" d="m60.930576,54.149998c-1.900002,0.700001 -3.800003,1.400005 -5.900002,1.999996c-1.900002,0.600006 -4,1 -6,1.200005c-0.199997,5.000008 0.699997,10.400002 1.300003,13.000008c2.799995,-0.300003 5.599998,-0.800003 8.299995,-1.5c2.200005,-0.5 4.200005,-1.100006 6.200008,-1.800003c-0.300003,-2.300003 -1.400005,-7.800003 -3.900005,-12.900005z" fill="#f05f40"/>
   <path id="svg_21" d="m18.830574,47.25c-0.299999,-2.799999 1.1,-5.700001 3.700001,-8.5c-6.5,-2.600002 -13,0.399998 -15.8,2c-2,3.799999 -2.7,7.700001 -1.8,11.5c0.2,0.700001 0.4,1.399998 0.7,2.099998c1.8,-2.399998 6.400001,-7 13.2,-7.099998z" fill="#f05f40"/>
   <path id="svg_22" d="m41.230572,27.949997c-1.399994,-3.5 -4.099998,-5.999998 -6.399994,-7.599998c-5.500002,2 -10.400003,4.400002 -14.700003,7.099998c3.599998,0 8.200001,0.900002 11.799999,4.400002c2.900003,-1.599998 6.000002,-2.900002 9.299997,-3.900002z" fill="#f05f40"/>
   <path id="svg_23" d="m23.230574,37.950001c2,-2 4.700001,-3.900002 7.700001,-5.600002c-3.9,-3.599998 -9,-4 -12.6,-3.699997c-4.5,3.099998 -8.2,6.599998 -10.599999,10.299999c3.5,-1.800003 9.499999,-3.700001 15.499999,-1z" fill="#f05f40"/>
   <path id="svg_24" d="m7.630574,60.349998l0,2.200005c0,0.300003 0,0.5 0,0.699997c1.6,1.899994 4.099999,4.300003 7.500001,6.600006c0.199999,0.099991 0.4,0.199997 0.599998,0.399994l0,-3.800003c-3.299999,-1.800003 -5.999999,-3.800003 -8.099999,-6.099998z" fill="#f05f40"/>
   <path id="svg_25" d="m31.230574,76.350006c3.200003,0.599991 6.700003,1 10.600004,1.099991l0,-5c-3.700005,0 -7.300003,-0.399994 -10.600004,-0.899994l0,4.800003z" fill="#f05f40"/>
   <path id="svg_26" d="m18.730574,71.949997c2.5,1.300003 5.5,2.5 8.900002,3.5l0,-4.699997c-3.200001,-0.699997 -6.200001,-1.699997 -8.900002,-2.899994l0,4.099991z" fill="#f05f40"/>
   <path id="svg_27" d="m86.030579,56.449997l0,3.600006c2.599991,-2.700005 4.800003,-5.400005 6.599991,-7.900005c0,-0.399998 0,-0.799999 0,-1.199997l0,-2.900002c-1.199997,2.200001 -2.799988,4.400002 -4.699997,6.5c-0.5,0.599998 -1.199997,1.200001 -1.899994,1.899998z" fill="#f05f40"/>
   <path id="svg_28" d="m74.130569,69.449997c3.300003,-2 6.300003,-4.199997 8.900009,-6.5l0,-3.899994c-2.699997,2.199997 -5.699997,4.099991 -8.900009,5.800003l0,4.599991z" fill="#f05f40"/>
   <path id="svg_29" d="m46.030575,77.350006c1.900002,-0.100006 3.800003,-0.200012 5.900002,-0.5c1.599998,-0.200012 3.099998,-0.400009 4.599998,-0.700012l0,-5.099991c-3.400002,0.699997 -6.900002,1.099991 -10.5,1.300003l0,5z" fill="#f05f40"/>
   <path id="svg_30" d="m60.730579,75.149994c3.499996,-1 6.799999,-2.299988 9.799999,-3.799988l0,-4.800003c-3.100006,1.399994 -6.400009,2.5 -9.799999,3.399994l0,5.199997z" fill="#f05f40"/>
   <path id="svg_31" d="m64.430573,30.049999c6,0.700001 11.100006,3 15.100006,6.799999c0.099991,-0.700001 0.199997,-1.399998 0.099991,-2.099998c-4.099991,-3.5 -9.099991,-5.599998 -15,-6.400002c-1.39999,-0.199997 -2.89999,-0.299999 -4.39999,-0.299999c0.099998,-0.399998 0.299995,-0.899998 0.399994,-1.399998c-1,0 -2,0 -3,0.099998c-0.099998,0.5 -0.199997,0.900002 -0.400002,1.400002c-7,0.399998 -14,2.499996 -19.799995,4.899998c-0.5,-0.400002 -1.099998,-0.900002 -1.700005,-1.400002c-1,0.400002 -1.899994,0.900002 -2.899994,1.400002c0.5,0.400002 1,0.900002 1.599998,1.400002c-3.900003,1.899998 -7.100002,3.899998 -9.100002,5.5c-1.9,1.799999 -3.199999,4.099998 -3.9,6.299999c-0.299999,-0.100002 -0.700001,-0.200001 -1,-0.200001c0,0.599998 0,1.299999 0.200001,1.799999c0.299999,0.900002 0.9,1.799999 1.699999,2.700001c0,-0.5 0.1,-1 0.200001,-1.5c1.1,0.200001 2,0.400002 2.699999,0.400002c-0.199999,0.899998 -0.099998,1.699997 0,2.399998c0,0.299999 0.1,0.5 0.200001,0.799999c0.700001,0.400002 1.4,0.700001 2.200001,1c-0.400002,-0.699997 -0.700001,-1.399998 -0.800001,-2.099998c-0.5,-2.900002 1.300001,-5.900002 5.299999,-8.700001c11.200005,-7.799999 24.400002,-11 34.499996,-8.399998c4.400009,1.199997 8.100006,3.399998 10.900009,6.699997c0.399994,-0.5 0.699997,-0.899998 0.899994,-1.399998c-3,-3.299999 -6.800003,-5.600002 -11.399994,-6.799999c-2.600006,-0.700001 -5.299999,-1 -8.200001,-1c0.199997,-0.5 0.5,-1.300003 0.900002,-2.200001c1.599998,0 3.199997,0.099998 4.699993,0.299999zm-33.299997,11.5c-2.700001,1.900002 -4.300001,3.799999 -5.200001,5.5c-0.9,-0.099998 -1.9,-0.299999 -2.9,-0.400002c0.6,-1.899998 1.699999,-3.799999 3.6,-5.399998c2,-1.700001 5.299999,-3.700001 9.4,-5.600002c0.699997,0.600002 1.5,1.200001 2.199997,1.700001c-2.399994,1.200001 -4.799995,2.600002 -7.099997,4.200001zm24.999998,-9.400002c-4.799995,0.400002 -9.799995,1.700001 -14.699997,3.800003c-0.599998,-0.400002 -1.400002,-0.900002 -2.300003,-1.600002c5.300003,-2.200001 11.5,-3.899998 17.800003,-4.400002c-0.300003,0.700001 -0.5,1.400002 -0.800003,2.200001z" fill="#f05f40"/>
   <path id="svg_32" d="m30.730574,47.149998c-0.399998,0.200001 -0.700001,0.600002 -0.700001,1.100002c0,0.5 0.300003,0.899998 0.700001,1.099998l14.100004,6.700005c3.5,-0.200005 6.899994,-0.700005 9.899994,-1.600002c2.800003,-0.800003 5.500008,-1.800003 8.000008,-2.900002l-19.900002,-10.200001l-12.100004,5.799999z" fill="#f05f40"/>
   <path id="svg_33" d="m57.830578,35.75c-0.5,-0.299999 -1.100006,-0.400002 -1.700005,-0.400002c-0.599998,0 -1.199997,0.100002 -1.799995,0.400002l-9.600006,4.599998l19.899998,10.400002c4.200012,-2 7.900009,-4.400002 10.5,-6.900002l-17.299992,-8.099998z" fill="#f05f40"/>
  </g>
  <text id="svg_34" font-family="'Helvetica Neue', Helvetica, Arial-Unicode, Arial, Sans-serif" font-weight="bold" font-size="5px" fill="#000000" y="115" x="0">Created by parkjisun</text>
  <text id="svg_35" font-family="'Helvetica Neue', Helvetica, Arial-Unicode, Arial, Sans-serif" font-weight="bold" font-size="5px" fill="#000000" y="120" x="0">from the Noun Project</text>
 </g>
</svg>