<svg xmlns="http://www.w3.org/2000/svg" xmlns:xlink="http://www.w3.org/1999/xlink" version="1.1" x="0px" y="0px" viewBox="0 0 100 125" enable-background="new 0 0 100 100" xml:space="preserve"><g><path fill="#000000" d="M74.7,76.8c3.6-1.8,6.5-3.7,8.9-5.7v-5.8c-2.6,2.2-5.5,4.4-8.9,6.3V76.8z"/><path fill="#000000" d="M19.3,78.8c2.5,1.3,5.4,2.4,8.9,3.3v-4.5c-3.5-0.9-6.4-2.1-8.9-3.4V78.8z"/><path fill="#000000" d="M61.3,81.5c3.7-0.9,6.9-1.9,9.8-3.1v-4.9c-3,1.4-6.2,2.7-9.8,3.7V81.5z"/><path fill="#000000" d="M8.4,66.1c0.7,3.9,2.9,7.5,6.2,9.8c0.5,0.4,1.1,0.7,1.6,1.1v-4.6c-0.4-0.3-0.8-0.5-1.2-0.8   C12.2,69.8,10,67.8,8.4,66.1z"/><path fill="#000000" d="M46.6,79.4v4.2c2.4-0.1,4.9-0.4,7.6-0.8c1-0.1,1.9-0.3,2.8-0.5v-4.2c-1.4,0.3-2.9,0.5-4.5,0.7   C50.6,79.2,48.6,79.3,46.6,79.4z"/><path fill="#000000" d="M86.6,62.6v5.8c0.1-0.1,0.2-0.2,0.3-0.3c3.3-3.5,5.5-8,6.1-12.8c-0.8,1-1.6,2.1-2.5,3.1   C89.4,59.7,88.1,61.2,86.6,62.6z"/><path fill="#000000" d="M31.8,82.8c3.2,0.6,6.7,0.9,10.6,0.9v-4.3c-3.9-0.1-7.5-0.5-10.6-1.1V82.8z"/><path fill="#000000" d="M61.9,26c0.2,0,0.4,0,0.6,0c0.1-4.3,0.3-7.6,0.3-9.8c-0.1,0-0.2,0-0.3,0c-3.8,0-7.8,0.3-12,1   c1.2,2,2.7,5,3.6,9.2C56.9,26.2,59.5,26,61.9,26z"/><path fill="#000000" d="M42.9,28.6c1.1-0.3,2.2-0.6,3.4-0.8c2.3-0.5,4.6-0.9,6.9-1.2c-0.9-4.3-2.5-7.3-3.7-9.1   c-1.6,0.3-3.1,0.6-4.7,1c-2.8,0.7-5.4,1.5-8,2.4C39,22.5,41.5,25.1,42.9,28.6z"/><path fill="#000000" d="M78.2,29.8c4.5-3.4,9.3-4.4,11.9-4.7c-3-3.1-7.4-5.4-12.6-6.9c-1.2,2-2.7,5.1-4.1,9.3   C75.2,28.1,76.9,28.8,78.2,29.8z"/><path fill="#000000" d="M81.8,37c-0.1,1.9-1,3.9-2.3,5.8c5.6,2.5,8.9,6.6,10.2,8.4c3-4,4.7-8.3,5.1-12.4   C93.2,38.1,88.1,36.1,81.8,37z"/><path fill="#000000" d="M76.4,17.9c-3.8-1-7.9-1.5-12.4-1.6c-0.1,2.1-0.2,5.5-0.3,9.8c3.2,0.1,6.2,0.5,8.7,1.1   C73.6,23,75.1,20,76.4,17.9z"/><path fill="#000000" d="M94.5,32.8c-0.6-2.5-1.8-4.7-3.5-6.7c-2.2,0.2-7.2,0.9-11.9,4.4c1.2,1.1,2.1,2.3,2.5,3.8   c0.2,0.5,0.2,1.1,0.3,1.7c6.1-0.9,11.1,0.8,13.1,1.7C95.1,36,94.9,34.4,94.5,32.8z"/><path fill="#000000" d="M78.8,61.4c-0.5-1.7-2.5-7-7.6-11.2c-2.6,1.6-5.5,3.1-8.7,4.4c2.5,5.1,3.6,10.5,3.9,12.9   C71.1,65.9,75.2,63.8,78.8,61.4z"/><path fill="#000000" d="M78.9,43.7c-1.7,2.1-3.9,4.1-6.7,5.9c4.9,4.1,7,9.1,7.6,11.1c3.7-2.6,6.9-5.5,9.3-8.6   C88,50.6,84.7,46.2,78.9,43.7z"/><path fill="#000000" d="M48.5,58.4c-1.9,0.2-3.8,0.3-5.7,0.3c-1.8,0-3.6-0.1-5.3-0.3c-3.8,3.8-4.4,9.5-4.4,12.5   c3.2,0.5,6.6,0.8,10.1,0.8c2.2,0,4.4-0.1,6.6-0.3C49.2,68.7,48.3,63.5,48.5,58.4z"/><path fill="#000000" d="M15.7,65.2c0.7-1.9,3.4-7.5,9.5-10.1c-2.9-1.5-5-3.5-5.6-5.9c-6.8,0-11.3,5-12.9,7.2   C8.4,59.8,11.6,62.8,15.7,65.2z"/><path fill="#000000" d="M36.1,58.3c-3.5-0.5-6.8-1.3-9.5-2.5c-6.5,2.2-9.3,8.3-9.9,9.9c4.3,2.3,9.5,4.1,15.3,5   C32,67.7,32.5,62.3,36.1,58.3z"/><path fill="#000000" d="M61.5,55.1c-1.9,0.7-3.8,1.4-5.9,2c-1.9,0.6-4,1-6,1.2c-0.2,5,0.7,10.4,1.3,13c2.8-0.3,5.6-0.8,8.3-1.5   c2.2-0.5,4.2-1.1,6.2-1.8C65.1,65.7,64,60.2,61.5,55.1z"/><path fill="#000000" d="M19.4,48.2c-0.3-2.8,1.1-5.7,3.7-8.5c-6.5-2.6-13,0.4-15.8,2c-2,3.8-2.7,7.7-1.8,11.5   c0.2,0.7,0.4,1.4,0.7,2.1C8,52.9,12.6,48.3,19.4,48.2z"/><path fill="#000000" d="M41.8,28.9c-1.4-3.5-4.1-6-6.4-7.6c-5.5,2-10.4,4.4-14.7,7.1c3.6,0,8.2,0.9,11.8,4.4   C35.4,31.2,38.5,29.9,41.8,28.9z"/><path fill="#000000" d="M23.8,38.9c2-2,4.7-3.9,7.7-5.6c-3.9-3.6-9-4-12.6-3.7c-4.5,3.1-8.2,6.6-10.6,10.3   C11.8,38.1,17.8,36.2,23.8,38.9z"/><path fill="#000000" d="M8.2,61.3v2.2c0,0.3,0,0.5,0,0.7c1.6,1.9,4.1,4.3,7.5,6.6c0.2,0.1,0.4,0.2,0.6,0.4v-3.8   C13,65.6,10.3,63.6,8.2,61.3z"/><path fill="#000000" d="M31.8,77.3c3.2,0.6,6.7,1,10.6,1.1v-5c-3.7,0-7.3-0.4-10.6-0.9V77.3z"/><path fill="#000000" d="M19.3,72.9c2.5,1.3,5.5,2.5,8.9,3.5v-4.7C25,71,22,70,19.3,68.8V72.9z"/><path fill="#000000" d="M86.6,57.4V61c2.6-2.7,4.8-5.4,6.6-7.9c0-0.4,0-0.8,0-1.2v-2.9c-1.2,2.2-2.8,4.4-4.7,6.5   C88,56.1,87.3,56.7,86.6,57.4z"/><path fill="#000000" d="M74.7,70.4c3.3-2,6.3-4.2,8.9-6.5V60c-2.7,2.2-5.7,4.1-8.9,5.8V70.4z"/><path fill="#000000" d="M46.6,78.3c1.9-0.1,3.8-0.2,5.9-0.5c1.6-0.2,3.1-0.4,4.6-0.7V72c-3.4,0.7-6.9,1.1-10.5,1.3V78.3z"/><path fill="#000000" d="M61.3,76.1c3.5-1,6.8-2.3,9.8-3.8v-4.8c-3.1,1.4-6.4,2.5-9.8,3.4V76.1z"/><path fill="#000000" d="M65,31c6,0.7,11.1,3,15.1,6.8c0.1-0.7,0.2-1.4,0.1-2.1c-4.1-3.5-9.1-5.6-15-6.4c-1.4-0.2-2.9-0.3-4.4-0.3   c0.1-0.4,0.3-0.9,0.4-1.4c-1,0-2,0-3,0.1c-0.1,0.5-0.2,0.9-0.4,1.4c-7,0.4-14,2.5-19.8,4.9c-0.5-0.4-1.1-0.9-1.7-1.4   c-1,0.4-1.9,0.9-2.9,1.4c0.5,0.4,1,0.9,1.6,1.4c-3.9,1.9-7.1,3.9-9.1,5.5C24,42.7,22.7,45,22,47.2c-0.3-0.1-0.7-0.2-1-0.2   c0,0.6,0,1.3,0.2,1.8c0.3,0.9,0.9,1.8,1.7,2.7c0-0.5,0.1-1,0.2-1.5c1.1,0.2,2,0.4,2.7,0.4c-0.2,0.9-0.1,1.7,0,2.4   c0,0.3,0.1,0.5,0.2,0.8c0.7,0.4,1.4,0.7,2.2,1c-0.4-0.7-0.7-1.4-0.8-2.1c-0.5-2.9,1.3-5.9,5.3-8.7c11.2-7.8,24.4-11,34.5-8.4   c4.4,1.2,8.1,3.4,10.9,6.7c0.4-0.5,0.7-0.9,0.9-1.4c-3-3.3-6.8-5.6-11.4-6.8c-2.6-0.7-5.3-1-8.2-1c0.2-0.5,0.5-1.3,0.9-2.2   C61.9,30.7,63.5,30.8,65,31z M31.7,42.5c-2.7,1.9-4.3,3.8-5.2,5.5c-0.9-0.1-1.9-0.3-2.9-0.4c0.6-1.9,1.7-3.8,3.6-5.4   c2-1.7,5.3-3.7,9.4-5.6c0.7,0.6,1.5,1.2,2.2,1.7C36.4,39.5,34,40.9,31.7,42.5z M56.7,33.1c-4.8,0.4-9.8,1.7-14.7,3.8   c-0.6-0.4-1.4-0.9-2.3-1.6c5.3-2.2,11.5-3.9,17.8-4.4C57.2,31.6,57,32.3,56.7,33.1z"/><path fill="#000000" d="M31.3,48.1c-0.4,0.2-0.7,0.6-0.7,1.1c0,0.5,0.3,0.9,0.7,1.1l14.1,6.7c3.5-0.2,6.9-0.7,9.9-1.6   c2.8-0.8,5.5-1.8,8-2.9L43.4,42.3L31.3,48.1z"/><path fill="#000000" d="M58.4,36.7c-0.5-0.3-1.1-0.4-1.7-0.4c-0.6,0-1.2,0.1-1.8,0.4l-9.6,4.6l19.9,10.4c4.2-2,7.9-4.4,10.5-6.9   L58.4,36.7z"/></g><text x="0" y="115" fill="#000000" font-size="5px" font-weight="bold" font-family="'Helvetica Neue', Helvetica, Arial-Unicode, Arial, Sans-serif">Created by parkjisun</text><text x="0" y="120" fill="#000000" font-size="5px" font-weight="bold" font-family="'Helvetica Neue', Helvetica, Arial-Unicode, Arial, Sans-serif">from the Noun Project</text></svg>