<svg width="40" height="39" xmlns="http://www.w3.org/2000/svg">
 <title>021-benthanh-market-building-attraction-saigon</title>

 <desc>Created with Sketch.</desc>
 <g>
  <title>background</title>
  <rect fill="none" id="canvas_background" height="41" width="42" y="-1" x="-1"/>
 </g>
 <g>
  <title>Layer 1</title>
  <g id="svg_1" fill-rule="evenodd" fill="none">
   <g id="svg_2" fill="#000000">
    <g id="svg_3">
     <g id="svg_4">
      <path fill="#f05f40" id="svg_5" d="m20,37.5c9.941126,0 18,-8.058868 18,-18c0,-9.941132 -8.058874,-18 -18,-18c-9.941126,0 -18,8.058868 -18,18c0,9.941132 8.058874,18 18,18zm14,-17l-5,0l0,-2l-4,-2l0,-6l1,0l0,-0.5l-1,-0.5l0,-1l2,0l-7,-2l-7,2l2,0l0,1l-1,0.5l0,0.5l1,0l0,6l-4,2l0,2l-5,0l0,8l28,0l0,-8zm-24,7l0,-3.5c0,-0.82843 -0.671574,-1.5 -1.5,-1.5c-0.828426,0 -1.5,0.67157 -1.5,1.5l0,3.5l3,0zm23,0l0,-3.5c0,-0.82843 -0.671577,-1.5 -1.5,-1.5c-0.828426,0 -1.5,0.67157 -1.5,1.5l0,3.5l3,0zm-10,0l0,-5c0,-1.65686 -1.343145,-3 -3,-3c-1.656855,0 -3,1.34314 -3,3l0,5l6,0zm-11,-5l3,0l0,5l-3,0l0,-5zm13,0l3,0l0,5l-3,0l0,-5zm-5,-6c1.656855,0 3,-1.34314 3,-3c0,-1.65686 -1.343145,-3 -3,-3c-1.656855,0 -3,1.34314 -3,3c0,1.65686 1.343145,3 3,3zm3,-8l0,1l-6,0l0,-1l6,0z"/>
     </g>
    </g>
   </g>
  </g>
  <text id="svg_6" font-family="'Helvetica Neue', Helvetica, Arial-Unicode, Arial, Sans-serif" font-weight="bold" font-size="5px" fill="#000000" y="55" x="0">Created by Pham Thi Dieu Linh</text>
  <text id="svg_7" font-family="'Helvetica Neue', Helvetica, Arial-Unicode, Arial, Sans-serif" font-weight="bold" font-size="5px" fill="#000000" y="60" x="0">from the Noun Project</text>
 </g>
</svg>