<svg width="100" height="97" xmlns="http://www.w3.org/2000/svg">

 <g>
  <title>background</title>
  <rect fill="none" id="canvas_background" height="99" width="102" y="-1" x="-1"/>
 </g>
 <g>
  <title>Layer 1</title>
  <path fill="#f05f40" id="svg_1" d="m85.652,59.48l0,-10.271l-3.089996,0l0,-0.876999l0.954994,0l-5.323997,-4.466l0,-17.993002c-5.826004,-1.755001 -13.445,-1.453001 -19.323997,-0.726999l0.030998,-0.101002l0,-1.998999l-28.284,-11.976999l-13.804001,4.326l0,25.485001l-9.813999,1.130001l0,5.737l27.220001,-1.583l0,2.638l-27.220001,1.584l0,8.209l27.220001,0.021l0,2.632999l-27.220001,-0.021l0,8.523998l76.690002,7.097l0,2.645004l-76.690002,-7.098l0,6.214996l76.690002,7.32l9.313995,-2.830002l0,-23.620998l-7.349998,0zm-60.188999,-24.604l-2.16,0.480999l0,-2.665001l2.16,-0.475998l0,2.66zm0,-4.989l-2.16,0.479l0,-2.662001l2.16,-0.480999l0,2.664zm26.447002,9.960001l-2.829002,0l0,-2.437l2.829002,0l0,2.437zm0,-4.52l-2.829002,0l0,-2.437l2.829002,0l0,2.437zm0,-4.515999l-2.829002,0l0,-2.441l2.829002,0l0,2.441zm10.898994,15.231998l-3.655998,0l0,-2.832001l3.655998,0l0,2.832001zm0,-4.961998l-3.655998,0l0,-2.828999l3.655998,0l0,2.828999zm0,-4.962002l-3.655998,0l0,-2.828999l3.655998,0l0,2.828999zm0,-4.961998l-3.655998,0l0,-2.829l3.655998,0l0,2.829zm6.351006,14.885998l-3.655998,0l0,-2.832001l3.655998,0l0,2.832001zm0,-5.243999l-3.655998,0l0,-2.826l3.655998,0l0,2.826zm0,-5.237999l-3.655998,0l0,-2.828999l3.655998,0l0,2.828999zm0,-5.242001l-3.655998,0l0,-2.829l3.655998,0l0,2.829zm6.349998,15.723999l-3.655998,0l0,-2.832001l3.655998,0l0,2.832001zm0,-4.961998l-3.655998,0l0,-2.828999l3.655998,0l0,2.828999zm0,-4.962002l-3.655998,0l0,-2.828999l3.655998,0l0,2.828999zm0,-4.961998l-3.655998,0l0,-2.829l3.655998,0l0,2.829z"/>
  <text id="svg_2" font-family="'Helvetica Neue', Helvetica, Arial-Unicode, Arial, Sans-serif" font-weight="bold" font-size="5px" fill="#000000" y="115" x="0">Created by Melissa Schmitt</text>
  <text id="svg_3" font-family="'Helvetica Neue', Helvetica, Arial-Unicode, Arial, Sans-serif" font-weight="bold" font-size="5px" fill="#000000" y="120" x="0">from the Noun Project</text>
 </g>
</svg>